<svg width="248" height="142" viewBox="0 0 248 142" fill="none" xmlns="http://www.w3.org/2000/svg">
<g filter="url(#filter0_d_45_92)">
<path d="M20.246 102.766C11.1336 102.766 5.71832 98.0534 4 88.6286L11.1076 87.4571C11.5762 90.4251 12.6177 92.7422 14.2318 94.4085C15.846 96.0226 17.8507 96.8297 20.246 96.8297C22.9016 96.8297 24.9844 95.9185 26.4944 94.096C28.0045 92.2736 28.7595 89.618 28.7595 86.1293V54.1841H18.4495V48.248H36.0233V85.9731C36.0233 91.1801 34.6174 95.2937 31.8056 98.3137C28.9938 101.282 25.1406 102.766 20.246 102.766Z" fill="#57575B"/>
<path d="M20.246 102.767C11.1336 102.767 5.71832 98.0541 4 88.6294L11.1076 87.4578C11.5762 90.4258 12.6177 92.743 14.2318 94.4092C15.846 96.0234 17.8507 96.8305 20.246 96.8305C22.9016 96.8305 24.9844 95.9192 26.4944 94.0968C28.0045 92.2743 28.7595 89.6187 28.7595 86.13V74.8047L32.118 70.8994L36.0233 66.9941V85.9738C36.0233 91.1808 34.6174 95.2944 31.8056 98.3145C28.9938 101.282 25.1406 102.767 20.246 102.767Z" fill="#E24502"/>
</g>
<circle cx="204.411" cy="101.514" r="28.8991" fill="white" fill-opacity="0.28"/>
<g filter="url(#filter1_d_45_92)">
<path d="M77.5029 82V78.2891C76.3311 78.9238 74.9964 79.5098 73.499 80.0469C72.0179 80.584 70.4473 81.0479 68.7871 81.4385C67.1432 81.8291 65.4505 82.1302 63.709 82.3418C61.9674 82.5534 60.2585 82.6592 58.582 82.6592C56.401 82.6592 54.4398 82.4639 52.6982 82.0732C50.973 81.6826 49.5081 81.1048 48.3037 80.3398C47.0993 79.5586 46.1715 78.5983 45.5205 77.459C44.8695 76.3034 44.5439 74.9688 44.5439 73.4551C44.5439 71.9577 44.9183 70.6393 45.667 69.5C46.432 68.3444 47.5143 67.3434 48.9141 66.4971C50.3138 65.6344 51.9984 64.9102 53.9678 64.3242C55.9535 63.722 58.167 63.2174 60.6084 62.8105C63.0498 62.3874 65.6865 62.0456 68.5186 61.7852C71.3669 61.5085 74.3617 61.2806 77.5029 61.1016V58.5381C77.5029 57.4964 77.3076 56.5768 76.917 55.7793C76.5264 54.9818 75.9811 54.29 75.2812 53.7041C74.5814 53.1019 73.7594 52.6055 72.8154 52.2148C71.8714 51.8079 70.846 51.4824 69.7393 51.2383C68.6488 50.9941 67.4932 50.8232 66.2725 50.7256C65.068 50.6117 63.8555 50.5547 62.6348 50.5547C60.9909 50.5547 59.4935 50.6361 58.1426 50.7988C56.7917 50.9616 55.5303 51.1895 54.3584 51.4824C53.1865 51.7591 52.0635 52.0846 50.9893 52.459C49.915 52.8333 48.8327 53.2321 47.7422 53.6553V50.0908C50.0046 49.4886 52.4134 48.9678 54.9688 48.5283C57.5404 48.0726 60.2666 47.8447 63.1475 47.8447C65.5889 47.8447 67.8675 48.0563 69.9834 48.4795C72.0993 48.8864 73.9385 49.5456 75.501 50.457C77.0635 51.3685 78.2923 52.5485 79.1875 53.9971C80.0827 55.4294 80.5303 57.179 80.5303 59.2461V82H77.5029ZM77.5029 63.8115C72.1807 64.1045 67.6315 64.5195 63.8555 65.0566C60.0957 65.5938 57.0195 66.2529 54.627 67.0342C52.2344 67.8154 50.4766 68.7269 49.3535 69.7686C48.2467 70.8102 47.6934 71.9902 47.6934 73.3086C47.6934 74.3828 47.9619 75.335 48.499 76.165C49.0524 76.9951 49.8418 77.695 50.8672 78.2646C51.8926 78.818 53.1377 79.2412 54.6025 79.5342C56.0674 79.8109 57.7113 79.9492 59.5342 79.9492C60.6084 79.9492 61.7152 79.8923 62.8545 79.7783C64.0101 79.6481 65.1576 79.4772 66.2969 79.2656C67.4362 79.0378 68.5592 78.7773 69.666 78.4844C70.7728 78.1751 71.8145 77.8415 72.791 77.4834C73.7676 77.1253 74.6546 76.7428 75.4521 76.3359C76.266 75.929 76.9495 75.514 77.5029 75.0908V63.8115Z" fill="white"/>
</g>
<g filter="url(#filter2_d_45_92)">
<path d="M180.534 85.125V81.4141C179.362 82.0488 178.028 82.6348 176.53 83.1719C175.049 83.709 173.479 84.1729 171.818 84.5635C170.174 84.9541 168.482 85.2552 166.74 85.4668C164.999 85.6784 163.29 85.7842 161.613 85.7842C159.432 85.7842 157.471 85.5889 155.729 85.1982C154.004 84.8076 152.539 84.2298 151.335 83.4648C150.131 82.6836 149.203 81.7233 148.552 80.584C147.901 79.4284 147.575 78.0938 147.575 76.5801C147.575 75.0827 147.95 73.7643 148.698 72.625C149.463 71.4694 150.546 70.4684 151.945 69.6221C153.345 68.7594 155.03 68.0352 156.999 67.4492C158.985 66.847 161.198 66.3424 163.64 65.9355C166.081 65.5124 168.718 65.1706 171.55 64.9102C174.398 64.6335 177.393 64.4056 180.534 64.2266V61.6631C180.534 60.6214 180.339 59.7018 179.948 58.9043C179.558 58.1068 179.012 57.415 178.312 56.8291C177.613 56.2269 176.791 55.7305 175.847 55.3398C174.903 54.9329 173.877 54.6074 172.771 54.3633C171.68 54.1191 170.524 53.9482 169.304 53.8506C168.099 53.7367 166.887 53.6797 165.666 53.6797C164.022 53.6797 162.525 53.7611 161.174 53.9238C159.823 54.0866 158.562 54.3145 157.39 54.6074C156.218 54.8841 155.095 55.2096 154.021 55.584C152.946 55.9583 151.864 56.3571 150.773 56.7803V53.2158C153.036 52.6136 155.445 52.0928 158 51.6533C160.572 51.1976 163.298 50.9697 166.179 50.9697C168.62 50.9697 170.899 51.1813 173.015 51.6045C175.131 52.0114 176.97 52.6706 178.532 53.582C180.095 54.4935 181.324 55.6735 182.219 57.1221C183.114 58.5544 183.562 60.304 183.562 62.3711V85.125H180.534ZM180.534 66.9365C175.212 67.2295 170.663 67.6445 166.887 68.1816C163.127 68.7188 160.051 69.3779 157.658 70.1592C155.266 70.9404 153.508 71.8519 152.385 72.8936C151.278 73.9352 150.725 75.1152 150.725 76.4336C150.725 77.5078 150.993 78.46 151.53 79.29C152.084 80.1201 152.873 80.82 153.898 81.3896C154.924 81.943 156.169 82.3662 157.634 82.6592C159.099 82.9359 160.743 83.0742 162.565 83.0742C163.64 83.0742 164.746 83.0173 165.886 82.9033C167.041 82.7731 168.189 82.6022 169.328 82.3906C170.467 82.1628 171.59 81.9023 172.697 81.6094C173.804 81.3001 174.846 80.9665 175.822 80.6084C176.799 80.2503 177.686 79.8678 178.483 79.4609C179.297 79.054 179.981 78.639 180.534 78.2158V66.9365ZM219.45 54.168C218.978 54.0215 218.319 53.8669 217.473 53.7041C216.643 53.5251 215.568 53.4355 214.25 53.4355C212.427 53.4355 210.71 53.6634 209.099 54.1191C207.504 54.5586 206.014 55.1608 204.631 55.9258C203.264 56.6908 201.994 57.5859 200.822 58.6113C199.65 59.6204 198.592 60.6947 197.648 61.834V85.125H194.597V51.5801H197.648V58.416C198.739 57.293 199.919 56.2594 201.188 55.3154C202.474 54.3714 203.825 53.5658 205.241 52.8984C206.657 52.2148 208.138 51.6859 209.685 51.3115C211.247 50.9209 212.858 50.7256 214.519 50.7256C215.088 50.7256 215.601 50.7419 216.057 50.7744C216.512 50.7907 216.927 50.8232 217.302 50.8721C217.692 50.9046 218.059 50.9453 218.4 50.9941C218.742 51.043 219.092 51.0999 219.45 51.165V54.168Z" fill="white"/>
</g>
<path d="M12.6595 127.562C12.0115 127.562 11.4355 127.394 10.9315 127.058C10.4355 126.722 10.0475 126.246 9.7675 125.63C9.4875 125.014 9.3475 124.286 9.3475 123.446C9.3475 122.822 9.4275 122.258 9.5875 121.754C9.7475 121.25 9.9755 120.822 10.2715 120.47C10.5755 120.11 10.9315 119.838 11.3395 119.654C11.7555 119.462 12.2155 119.366 12.7195 119.366C13.1755 119.366 13.5795 119.458 13.9315 119.642C14.2915 119.826 14.5755 120.05 14.7835 120.314L14.4595 120.65C14.2435 120.402 13.9875 120.21 13.6915 120.074C13.4035 119.938 13.0835 119.87 12.7315 119.87C12.1555 119.87 11.6555 120.018 11.2315 120.314C10.8155 120.602 10.4915 121.014 10.2595 121.55C10.0355 122.078 9.9235 122.71 9.9235 123.446C9.9235 124.174 10.0355 124.81 10.2595 125.354C10.4835 125.898 10.8035 126.318 11.2195 126.614C11.6355 126.91 12.1275 127.058 12.6955 127.058C13.1035 127.058 13.4675 126.982 13.7875 126.83C14.1075 126.678 14.4115 126.442 14.6995 126.122L14.9995 126.434C14.7035 126.778 14.3675 127.054 13.9915 127.262C13.6235 127.462 13.1795 127.562 12.6595 127.562ZM19.08 127.562C18.448 127.562 17.888 127.394 17.4 127.058C16.912 126.714 16.528 126.234 16.248 125.618C15.968 125.002 15.828 124.274 15.828 123.434C15.828 122.602 15.968 121.882 16.248 121.274C16.528 120.658 16.912 120.186 17.4 119.858C17.888 119.53 18.448 119.366 19.08 119.366C19.712 119.366 20.272 119.53 20.76 119.858C21.256 120.186 21.644 120.658 21.924 121.274C22.204 121.882 22.344 122.602 22.344 123.434C22.344 124.274 22.204 125.002 21.924 125.618C21.644 126.234 21.256 126.714 20.76 127.058C20.272 127.394 19.712 127.562 19.08 127.562ZM19.08 127.058C19.616 127.058 20.084 126.91 20.484 126.614C20.884 126.31 21.196 125.89 21.42 125.354C21.644 124.81 21.756 124.17 21.756 123.434C21.756 122.706 21.644 122.078 21.42 121.55C21.196 121.014 20.884 120.602 20.484 120.314C20.084 120.018 19.616 119.87 19.08 119.87C18.544 119.87 18.076 120.018 17.676 120.314C17.276 120.602 16.964 121.014 16.74 121.55C16.516 122.078 16.404 122.706 16.404 123.434C16.404 124.17 16.516 124.81 16.74 125.354C16.964 125.89 17.276 126.31 17.676 126.614C18.076 126.91 18.544 127.058 19.08 127.058ZM24.1601 127.418V119.51H24.7601L28.0721 125.066C28.2241 125.33 28.3761 125.598 28.5281 125.87C28.6801 126.134 28.8241 126.398 28.9601 126.662H29.0081C29.0001 126.278 28.9841 125.894 28.9601 125.51C28.9441 125.126 28.9361 124.742 28.9361 124.358V119.51H29.4641V127.418H28.8641L25.5521 121.862C25.4001 121.598 25.2481 121.33 25.0961 121.058C24.9441 120.786 24.8001 120.522 24.6641 120.266H24.6161C24.6321 120.634 24.6481 121.002 24.6641 121.37C24.6801 121.738 24.6881 122.118 24.6881 122.51V127.418H24.1601ZM33.493 127.418V119.99H30.973V119.51H36.565V119.99H34.045V127.418H33.493ZM38.082 127.418V119.51H40.35C40.87 119.51 41.322 119.578 41.706 119.714C42.098 119.85 42.402 120.074 42.618 120.386C42.834 120.69 42.942 121.094 42.942 121.598C42.942 122.078 42.834 122.482 42.618 122.81C42.402 123.13 42.098 123.374 41.706 123.542C41.322 123.702 40.87 123.782 40.35 123.782H38.634V127.418H38.082ZM38.634 123.326H40.206C40.91 123.326 41.446 123.186 41.814 122.906C42.19 122.618 42.378 122.182 42.378 121.598C42.378 121.006 42.19 120.59 41.814 120.35C41.446 120.102 40.91 119.978 40.206 119.978H38.634V123.326ZM42.462 127.418L40.218 123.626L40.746 123.47L43.098 127.418H42.462ZM43.5296 127.418L46.3136 119.51H46.8656L49.6496 127.418H49.0736L47.4896 122.762C47.3296 122.29 47.1776 121.838 47.0336 121.406C46.8896 120.966 46.7496 120.506 46.6136 120.026H46.5656C46.4296 120.506 46.2896 120.966 46.1456 121.406C46.0016 121.838 45.8496 122.29 45.6896 122.762L44.0816 127.418H43.5296ZM44.8016 124.706V124.238H48.3416V124.706H44.8016ZM53.6048 127.562C52.9568 127.562 52.3808 127.394 51.8768 127.058C51.3808 126.722 50.9928 126.246 50.7128 125.63C50.4328 125.014 50.2928 124.286 50.2928 123.446C50.2928 122.822 50.3728 122.258 50.5328 121.754C50.6928 121.25 50.9208 120.822 51.2168 120.47C51.5208 120.11 51.8768 119.838 52.2848 119.654C52.7008 119.462 53.1608 119.366 53.6648 119.366C54.1208 119.366 54.5248 119.458 54.8768 119.642C55.2368 119.826 55.5208 120.05 55.7288 120.314L55.4048 120.65C55.1888 120.402 54.9328 120.21 54.6368 120.074C54.3488 119.938 54.0288 119.87 53.6768 119.87C53.1008 119.87 52.6008 120.018 52.1768 120.314C51.7608 120.602 51.4368 121.014 51.2048 121.55C50.9808 122.078 50.8688 122.71 50.8688 123.446C50.8688 124.174 50.9808 124.81 51.2048 125.354C51.4288 125.898 51.7488 126.318 52.1648 126.614C52.5808 126.91 53.0728 127.058 53.6408 127.058C54.0488 127.058 54.4128 126.982 54.7328 126.83C55.0528 126.678 55.3568 126.442 55.6448 126.122L55.9448 126.434C55.6488 126.778 55.3128 127.054 54.9368 127.262C54.5688 127.462 54.1248 127.562 53.6048 127.562ZM59.0164 127.418V119.99H56.4964V119.51H62.0884V119.99H59.5684V127.418H59.0164ZM63.6054 127.418V119.51H64.1574V127.418H63.6054ZM66.4882 127.418V119.51H67.0882L70.4002 125.066C70.5522 125.33 70.7042 125.598 70.8562 125.87C71.0082 126.134 71.1522 126.398 71.2882 126.662H71.3362C71.3282 126.278 71.3122 125.894 71.2882 125.51C71.2722 125.126 71.2642 124.742 71.2642 124.358V119.51H71.7922V127.418H71.1922L67.8802 121.862C67.7282 121.598 67.5762 121.33 67.4242 121.058C67.2722 120.786 67.1282 120.522 66.9922 120.266H66.9442C66.9602 120.634 66.9762 121.002 66.9922 121.37C67.0082 121.738 67.0162 122.118 67.0162 122.51V127.418H66.4882ZM77.0091 127.562C76.3291 127.562 75.7331 127.394 75.2211 127.058C74.7171 126.722 74.3211 126.246 74.0331 125.63C73.7531 125.014 73.6131 124.286 73.6131 123.446C73.6131 122.822 73.6971 122.262 73.8651 121.766C74.0331 121.262 74.2691 120.83 74.5731 120.47C74.8851 120.11 75.2531 119.838 75.6771 119.654C76.1091 119.462 76.5851 119.366 77.1051 119.366C77.6411 119.366 78.0811 119.47 78.4251 119.678C78.7771 119.878 79.0571 120.09 79.2651 120.314L78.9411 120.674C78.7411 120.45 78.4931 120.262 78.1971 120.11C77.9091 119.95 77.5491 119.87 77.1171 119.87C76.5091 119.87 75.9851 120.018 75.5451 120.314C75.1131 120.602 74.7771 121.014 74.5371 121.55C74.3051 122.078 74.1891 122.71 74.1891 123.446C74.1891 124.174 74.3011 124.81 74.5251 125.354C74.7571 125.898 75.0851 126.318 75.5091 126.614C75.9331 126.91 76.4451 127.058 77.0451 127.058C77.4051 127.058 77.7411 127.006 78.0531 126.902C78.3731 126.798 78.6291 126.65 78.8211 126.458V123.998H76.9251V123.53H79.3491V126.662C79.1011 126.926 78.7771 127.142 78.3771 127.31C77.9851 127.478 77.5291 127.562 77.0091 127.562ZM83.3651 129.278L83.1971 128.918C83.4771 128.774 83.7011 128.574 83.8691 128.318C84.0371 128.062 84.1211 127.766 84.1211 127.43L83.9651 126.71L84.3971 127.274C84.3411 127.354 84.2771 127.406 84.2051 127.43C84.1331 127.462 84.0571 127.478 83.9771 127.478C83.8411 127.478 83.7211 127.438 83.6171 127.358C83.5211 127.27 83.4731 127.142 83.4731 126.974C83.4731 126.806 83.5251 126.682 83.6291 126.602C83.7411 126.514 83.8611 126.47 83.9891 126.47C84.1731 126.47 84.3211 126.546 84.4331 126.698C84.5451 126.85 84.6011 127.058 84.6011 127.322C84.6011 127.762 84.4851 128.15 84.2531 128.486C84.0211 128.822 83.7251 129.086 83.3651 129.278ZM88.8124 127.418V119.51H89.3644V127.418H88.8124ZM91.6953 127.418V119.51H92.2952L95.6073 125.066C95.7593 125.33 95.9113 125.598 96.0633 125.87C96.2153 126.134 96.3593 126.398 96.4953 126.662H96.5433C96.5353 126.278 96.5193 125.894 96.4953 125.51C96.4793 125.126 96.4713 124.742 96.4713 124.358V119.51H96.9993V127.418H96.3993L93.0873 121.862C92.9353 121.598 92.7833 121.33 92.6313 121.058C92.4793 120.786 92.3353 120.522 92.1993 120.266H92.1513C92.1673 120.634 92.1833 121.002 92.1993 121.37C92.2153 121.738 92.2233 122.118 92.2233 122.51V127.418H91.6953ZM102.132 127.562C101.484 127.562 100.908 127.394 100.404 127.058C99.9082 126.722 99.5202 126.246 99.2402 125.63C98.9602 125.014 98.8202 124.286 98.8202 123.446C98.8202 122.822 98.9002 122.258 99.0602 121.754C99.2202 121.25 99.4482 120.822 99.7442 120.47C100.048 120.11 100.404 119.838 100.812 119.654C101.228 119.462 101.688 119.366 102.192 119.366C102.648 119.366 103.052 119.458 103.404 119.642C103.764 119.826 104.048 120.05 104.256 120.314L103.932 120.65C103.716 120.402 103.46 120.21 103.164 120.074C102.876 119.938 102.556 119.87 102.204 119.87C101.628 119.87 101.128 120.018 100.704 120.314C100.288 120.602 99.9642 121.014 99.7322 121.55C99.5082 122.078 99.3962 122.71 99.3962 123.446C99.3962 124.174 99.5082 124.81 99.7322 125.354C99.9562 125.898 100.276 126.318 100.692 126.614C101.108 126.91 101.6 127.058 102.168 127.058C102.576 127.058 102.94 126.982 103.26 126.83C103.58 126.678 103.884 126.442 104.172 126.122L104.472 126.434C104.176 126.778 103.84 127.054 103.464 127.262C103.096 127.462 102.652 127.562 102.132 127.562ZM106.254 127.562C106.126 127.562 106.006 127.514 105.894 127.418C105.79 127.322 105.738 127.19 105.738 127.022C105.738 126.846 105.79 126.71 105.894 126.614C106.006 126.518 106.126 126.47 106.254 126.47C106.39 126.47 106.506 126.518 106.602 126.614C106.706 126.71 106.758 126.846 106.758 127.022C106.758 127.19 106.706 127.322 106.602 127.418C106.506 127.514 106.39 127.562 106.254 127.562Z" fill="#57575B"/>
<g filter="url(#filter3_d_45_92)">
<path fill-rule="evenodd" clip-rule="evenodd" d="M93.7333 50.049L94.665 51.2136L96.2801 50.06C96.2189 50.0593 96.1581 50.0587 96.0978 50.058C95.1588 50.0485 94.3663 50.0458 93.7333 50.049ZM100.749 51.2918L99.9411 51.8691H101.326L100.749 51.2918ZM101.981 55.4691H101.871L101.981 55.706V55.4691ZM100.962 62.0686L100.853 61.8317V62.0686H100.962ZM100.853 71.4331V71.4413H100.857L100.853 71.4331ZM101.981 75.0413H101.792L101.981 75.4781V75.0413ZM101.041 82.3761L100.853 81.9393V82.3761H101.041ZM100.853 102.675V102.684H100.857L100.853 102.675ZM101.981 106.284H100.853V109.869H101.981V106.284ZM101.981 96.9191L101.977 96.9109H101.981V96.9191ZM105.581 96.9109H106.176L105.581 95.4472V84.1761V73.2413V63.8686V56.0345L106.297 55.4691H116.339L117.02 56.0696L117.701 55.4691H127.737H132.498L128.928 52.3193L123.57 47.5911L123.085 47.1636L122.439 47.1418C119.605 47.0463 115.866 46.9276 111.973 46.8155L111.725 46.5968L111.467 46.801C109.094 46.7333 106.677 46.6685 104.384 46.6133C101.269 46.5384 98.3772 46.481 96.1343 46.4582C93.9724 46.4363 92.2361 46.4421 91.5792 46.5242C90.4883 46.6606 89.6821 47.2634 89.1802 48.0457C88.7222 48.7596 88.5403 49.5768 88.4678 50.2654C88.3222 51.6488 88.5568 53.1513 88.7953 54.1056L89.1362 55.4691H90.5416H93.4591L93.9834 56.1245L94.9011 55.4691H97.2525V63.8686V73.2413V84.1761V95.1109V104.484V111.669V113.469H99.0525H103.781H105.581V111.669V104.484V96.9109ZM107.058 50.2816C106.288 50.2615 105.524 50.2422 104.772 50.2238L105.813 51.2644L107.058 50.2816ZM111.597 51.2847L110.857 51.8691H112.259L111.597 51.2847ZM116.198 50.543L117.02 51.2685L117.786 50.5924C117.268 50.5761 116.737 50.5596 116.198 50.543ZM122.379 51.3413L121.781 51.8691H122.977L122.379 51.3413ZM101.981 86.5975L101.728 85.9761H101.981V86.5975ZM101.981 65.6768L101.977 65.6686H101.981V65.6768ZM124.079 66.9428V54.4955H124.579V66.9428V83.7034L126.324 85.4483H129.057H129.307V85.6983V99.2527V99.5027H129.057H118.34H118.09V99.2527V85.6983V85.4483H118.34H122.03L124.079 83.692V66.9428ZM124.316 84.1474L122.798 85.4483H125.617L124.316 84.1474ZM126.824 85.9483H126.22H118.856L128.807 98.5334V85.9483H126.824ZM128.541 99.0027L118.59 86.4175V99.0027H128.541ZM141.772 74.8041L90.2228 82.6147L89.7734 79.6485L141.323 71.838L141.772 74.8041Z" fill="#57575B"/>
</g>
<g filter="url(#filter4_d_45_92)">
<path d="M22.5625 15.8125V25H20.6094V3.53125H31.2969C32.9323 3.53125 34.3333 3.66146 35.5 3.92188C36.6667 4.17188 37.6198 4.55729 38.3594 5.07812C39.1094 5.58854 39.6562 6.22917 40 7C40.3438 7.77083 40.5156 8.67188 40.5156 9.70312C40.5156 11.3073 40.0938 12.5938 39.25 13.5625C38.4062 14.5208 37.0469 15.1771 35.1719 15.5312L42.5 25H40.0469L33.125 15.75C32.8333 15.7708 32.5365 15.7865 32.2344 15.7969C31.9323 15.8073 31.6198 15.8125 31.2969 15.8125H22.5625ZM38.5 9.70312C38.5 8.78646 38.3385 8.04688 38.0156 7.48438C37.6927 6.91146 37.1667 6.46875 36.4375 6.15625C35.7083 5.84375 34.75 5.63542 33.5625 5.53125C32.3854 5.41667 30.9375 5.35938 29.2188 5.35938H22.5625V13.9844H29.1562C30.875 13.9844 32.3281 13.9375 33.5156 13.8438C34.7031 13.7396 35.6667 13.5365 36.4062 13.2344C37.1458 12.9219 37.6771 12.4896 38 11.9375C38.3333 11.375 38.5 10.6302 38.5 9.70312ZM73.0312 14.2812C73.0312 16.2083 72.6823 17.875 71.9844 19.2812C71.2865 20.6771 70.3281 21.8333 69.1094 22.75C67.8906 23.6562 66.4531 24.3281 64.7969 24.7656C63.1406 25.2031 61.3542 25.4219 59.4375 25.4219C57.5104 25.4219 55.7135 25.2031 54.0469 24.7656C52.3802 24.3281 50.9323 23.6562 49.7031 22.75C48.474 21.8333 47.5104 20.6771 46.8125 19.2812C46.1146 17.875 45.7656 16.2083 45.7656 14.2812C45.7656 13 45.9271 11.8385 46.25 10.7969C46.5729 9.74479 47.026 8.80729 47.6094 7.98438C48.1927 7.15104 48.8958 6.43229 49.7188 5.82812C50.5521 5.22396 51.474 4.72396 52.4844 4.32812C53.5052 3.92188 54.599 3.625 55.7656 3.4375C56.9323 3.23958 58.1562 3.14062 59.4375 3.14062C61.3542 3.14062 63.1406 3.35938 64.7969 3.79688C66.4531 4.23438 67.8906 4.91146 69.1094 5.82812C70.3281 6.73438 71.2865 7.89062 71.9844 9.29688C72.6823 10.6927 73.0312 12.3542 73.0312 14.2812ZM71.0156 14.2812C71.0156 12.7604 70.7656 11.4167 70.2656 10.25C69.776 9.08333 69.0469 8.10417 68.0781 7.3125C67.1094 6.51042 65.901 5.90625 64.4531 5.5C63.0156 5.08333 61.3438 4.875 59.4375 4.875C57.5312 4.875 55.849 5.08333 54.3906 5.5C52.9427 5.91667 51.7292 6.52604 50.75 7.32812C49.7708 8.11979 49.0312 9.10417 48.5312 10.2812C48.0312 11.4479 47.7812 12.7812 47.7812 14.2812C47.7812 15.8021 48.0312 17.1458 48.5312 18.3125C49.0312 19.4792 49.7708 20.4635 50.75 21.2656C51.7292 22.0573 52.9427 22.6615 54.3906 23.0781C55.849 23.4844 57.5312 23.6875 59.4375 23.6875C61.3438 23.6875 63.0156 23.4844 64.4531 23.0781C65.901 22.6615 67.1094 22.0573 68.0781 21.2656C69.0469 20.4635 69.776 19.4792 70.2656 18.3125C70.7656 17.1458 71.0156 15.8021 71.0156 14.2812Z" fill="#E24502"/>
<path d="M100.047 19.0781C100.047 19.9115 99.9375 20.6354 99.7188 21.25C99.5 21.8646 99.1927 22.3958 98.7969 22.8438C98.4115 23.2812 97.9427 23.6406 97.3906 23.9219C96.849 24.1927 96.25 24.4115 95.5938 24.5781C94.9375 24.7344 94.2344 24.8438 93.4844 24.9062C92.7344 24.9688 91.9583 25 91.1562 25H78.7656V3.53125H90.875C91.4896 3.53125 92.1042 3.55729 92.7188 3.60938C93.3333 3.66146 93.9219 3.76042 94.4844 3.90625C95.0573 4.04167 95.5833 4.23438 96.0625 4.48438C96.5521 4.73438 96.974 5.0625 97.3281 5.46875C97.6927 5.875 97.974 6.36458 98.1719 6.9375C98.3802 7.51042 98.4844 8.1875 98.4844 8.96875C98.4844 9.66667 98.3958 10.2708 98.2188 10.7812C98.0521 11.2917 97.7917 11.7292 97.4375 12.0938C97.0938 12.4583 96.651 12.7604 96.1094 13C95.5677 13.2292 94.9323 13.4115 94.2031 13.5469C95.2448 13.6198 96.1354 13.7969 96.875 14.0781C97.6146 14.3594 98.2188 14.7344 98.6875 15.2031C99.1562 15.6719 99.5 16.2344 99.7188 16.8906C99.9375 17.5365 100.047 18.2656 100.047 19.0781ZM96.6562 9C96.6562 8.69792 96.6354 8.39583 96.5938 8.09375C96.5521 7.79167 96.4583 7.50521 96.3125 7.23438C96.1667 6.95312 95.9531 6.69271 95.6719 6.45312C95.401 6.21354 95.026 6.01042 94.5469 5.84375C94.0677 5.66667 93.474 5.53125 92.7656 5.4375C92.0677 5.33333 91.224 5.28125 90.2344 5.28125H80.7188V12.7812H90.2344C91.6406 12.7812 92.7656 12.6823 93.6094 12.4844C94.4531 12.276 95.099 12 95.5469 11.6562C96.0052 11.3125 96.3021 10.9115 96.4375 10.4531C96.5833 9.99479 96.6562 9.51042 96.6562 9ZM98 19.0469C98 18.2344 97.8594 17.5417 97.5781 16.9688C97.2969 16.3958 96.8646 15.9271 96.2812 15.5625C95.6979 15.1979 94.9479 14.9323 94.0312 14.7656C93.1146 14.5885 92.026 14.5 90.7656 14.5H80.7188V23.2344H91.0312C92.3333 23.2344 93.4271 23.1615 94.3125 23.0156C95.2083 22.8594 95.9271 22.6146 96.4688 22.2812C97.0208 21.9375 97.4115 21.5 97.6406 20.9688C97.8802 20.4375 98 19.7969 98 19.0469ZM127.188 23.875C126.312 24.1458 125.5 24.3802 124.75 24.5781C124 24.7656 123.26 24.9167 122.531 25.0312C121.802 25.1562 121.057 25.2448 120.297 25.2969C119.547 25.3594 118.719 25.3906 117.812 25.3906C115.708 25.3906 113.807 25.1354 112.109 24.625C110.411 24.1146 108.964 23.3854 107.766 22.4375C106.578 21.4792 105.661 20.3229 105.016 18.9688C104.37 17.6146 104.047 16.0938 104.047 14.4062C104.047 12.7708 104.354 11.2708 104.969 9.90625C105.594 8.54167 106.464 7.36979 107.578 6.39062C108.693 5.41146 110.026 4.65104 111.578 4.10938C113.13 3.56771 114.844 3.29688 116.719 3.29688C118.667 3.29688 120.401 3.55729 121.922 4.07812C123.443 4.59896 124.724 5.34375 125.766 6.3125C126.807 7.28125 127.599 8.45833 128.141 9.84375C128.682 11.2188 128.953 12.7708 128.953 14.5V14.9844H106.062C106.177 16.3177 106.51 17.5208 107.062 18.5938C107.615 19.6667 108.396 20.5781 109.406 21.3281C110.427 22.0781 111.677 22.6562 113.156 23.0625C114.646 23.4583 116.38 23.6562 118.359 23.6562C119.203 23.6562 120.057 23.599 120.922 23.4844C121.786 23.3698 122.615 23.2188 123.406 23.0312C124.198 22.8333 124.922 22.6146 125.578 22.375C126.234 22.125 126.771 21.8698 127.188 21.6094V23.875ZM127.031 13.2812C126.958 12.1875 126.714 11.1458 126.297 10.1562C125.88 9.15625 125.255 8.27604 124.422 7.51562C123.599 6.75521 122.547 6.15104 121.266 5.70312C119.995 5.25521 118.469 5.03125 116.688 5.03125C115.01 5.03125 113.542 5.25521 112.281 5.70312C111.021 6.15104 109.953 6.75521 109.078 7.51562C108.203 8.26562 107.516 9.14062 107.016 10.1406C106.516 11.1302 106.198 12.1771 106.062 13.2812H127.031ZM150.578 5.1875C150.276 5.09375 149.854 4.99479 149.312 4.89062C148.781 4.77604 148.094 4.71875 147.25 4.71875C146.083 4.71875 144.984 4.86458 143.953 5.15625C142.932 5.4375 141.979 5.82292 141.094 6.3125C140.219 6.80208 139.406 7.375 138.656 8.03125C137.906 8.67708 137.229 9.36458 136.625 10.0938V25H134.672V3.53125H136.625V7.90625C137.323 7.1875 138.078 6.52604 138.891 5.92188C139.714 5.31771 140.578 4.80208 141.484 4.375C142.391 3.9375 143.339 3.59896 144.328 3.35938C145.328 3.10938 146.359 2.98438 147.422 2.98438C147.786 2.98438 148.115 2.99479 148.406 3.01562C148.698 3.02604 148.964 3.04688 149.203 3.07812C149.453 3.09896 149.688 3.125 149.906 3.15625C150.125 3.1875 150.349 3.22396 150.578 3.26562V5.1875ZM162.906 5.3125V25H160.969V5.3125H151.203V3.53125H172.672V5.3125H162.906Z" fill="white"/>
</g>
<path d="M76.04 12.7324C76.04 11.1588 75.7813 9.76849 75.264 8.56137C74.7574 7.35425 74.003 6.34113 73.0006 5.52202C71.9983 4.69212 70.7481 4.06701 69.25 3.64667C67.7626 3.21556 66.0328 3 64.0604 3C62.0881 3 60.3474 3.21556 58.8385 3.64667C57.3404 4.07778 56.0848 4.70829 55.0717 5.53818C54.0586 6.3573 53.2933 7.37581 52.776 8.5937C52.2587 9.80082 52 11.1804 52 12.7324C52 14.306 52.2587 15.6963 52.776 16.9034C53.2933 18.1105 54.0586 19.1291 55.0717 19.9589C56.0848 20.7781 57.3404 21.4032 58.8385 21.8343C60.3474 22.2546 62.0881 22.4648 64.0604 22.4648C66.0328 22.4648 67.7626 22.2546 69.25 21.8343C70.7481 21.4032 71.9983 20.7781 73.0006 19.9589C74.003 19.1291 74.7574 18.1105 75.264 16.9034C75.7813 15.6963 76.04 14.306 76.04 12.7324Z" fill="white"/>
<defs>
<filter id="filter0_d_45_92" x="0" y="48.248" width="40.0232" height="62.5176" filterUnits="userSpaceOnUse" color-interpolation-filters="sRGB">
<feFlood flood-opacity="0" result="BackgroundImageFix"/>
<feColorMatrix in="SourceAlpha" type="matrix" values="0 0 0 0 0 0 0 0 0 0 0 0 0 0 0 0 0 0 127 0" result="hardAlpha"/>
<feOffset dy="4"/>
<feGaussianBlur stdDeviation="2"/>
<feComposite in2="hardAlpha" operator="out"/>
<feColorMatrix type="matrix" values="0 0 0 0 0 0 0 0 0 0 0 0 0 0 0 0 0 0 0.18 0"/>
<feBlend mode="normal" in2="BackgroundImageFix" result="effect1_dropShadow_45_92"/>
<feBlend mode="normal" in="SourceGraphic" in2="effect1_dropShadow_45_92" result="shape"/>
</filter>
<filter id="filter1_d_45_92" x="40.5439" y="47.8438" width="43.9863" height="42.8164" filterUnits="userSpaceOnUse" color-interpolation-filters="sRGB">
<feFlood flood-opacity="0" result="BackgroundImageFix"/>
<feColorMatrix in="SourceAlpha" type="matrix" values="0 0 0 0 0 0 0 0 0 0 0 0 0 0 0 0 0 0 127 0" result="hardAlpha"/>
<feOffset dy="4"/>
<feGaussianBlur stdDeviation="2"/>
<feComposite in2="hardAlpha" operator="out"/>
<feColorMatrix type="matrix" values="0 0 0 0 0 0 0 0 0 0 0 0 0 0 0 0 0 0 0.18 0"/>
<feBlend mode="normal" in2="BackgroundImageFix" result="effect1_dropShadow_45_92"/>
<feBlend mode="normal" in="SourceGraphic" in2="effect1_dropShadow_45_92" result="shape"/>
</filter>
<filter id="filter2_d_45_92" x="143.575" y="50.7266" width="79.875" height="43.0586" filterUnits="userSpaceOnUse" color-interpolation-filters="sRGB">
<feFlood flood-opacity="0" result="BackgroundImageFix"/>
<feColorMatrix in="SourceAlpha" type="matrix" values="0 0 0 0 0 0 0 0 0 0 0 0 0 0 0 0 0 0 127 0" result="hardAlpha"/>
<feOffset dy="4"/>
<feGaussianBlur stdDeviation="2"/>
<feComposite in2="hardAlpha" operator="out"/>
<feColorMatrix type="matrix" values="0 0 0 0 0 0 0 0 0 0 0 0 0 0 0 0 0 0 0.18 0"/>
<feBlend mode="normal" in2="BackgroundImageFix" result="effect1_dropShadow_45_92"/>
<feBlend mode="normal" in="SourceGraphic" in2="effect1_dropShadow_45_92" result="shape"/>
</filter>
<filter id="filter3_d_45_92" x="84.4229" y="46.4473" width="61.3496" height="75.0215" filterUnits="userSpaceOnUse" color-interpolation-filters="sRGB">
<feFlood flood-opacity="0" result="BackgroundImageFix"/>
<feColorMatrix in="SourceAlpha" type="matrix" values="0 0 0 0 0 0 0 0 0 0 0 0 0 0 0 0 0 0 127 0" result="hardAlpha"/>
<feOffset dy="4"/>
<feGaussianBlur stdDeviation="2"/>
<feComposite in2="hardAlpha" operator="out"/>
<feColorMatrix type="matrix" values="0 0 0 0 0 0 0 0 0 0 0 0 0 0 0 0 0 0 0.18 0"/>
<feBlend mode="normal" in2="BackgroundImageFix" result="effect1_dropShadow_45_92"/>
<feBlend mode="normal" in="SourceGraphic" in2="effect1_dropShadow_45_92" result="shape"/>
</filter>
<filter id="filter4_d_45_92" x="16.6094" y="2.98438" width="160.062" height="30.4375" filterUnits="userSpaceOnUse" color-interpolation-filters="sRGB">
<feFlood flood-opacity="0" result="BackgroundImageFix"/>
<feColorMatrix in="SourceAlpha" type="matrix" values="0 0 0 0 0 0 0 0 0 0 0 0 0 0 0 0 0 0 127 0" result="hardAlpha"/>
<feOffset dy="4"/>
<feGaussianBlur stdDeviation="2"/>
<feComposite in2="hardAlpha" operator="out"/>
<feColorMatrix type="matrix" values="0 0 0 0 0 0 0 0 0 0 0 0 0 0 0 0 0 0 0.18 0"/>
<feBlend mode="normal" in2="BackgroundImageFix" result="effect1_dropShadow_45_92"/>
<feBlend mode="normal" in="SourceGraphic" in2="effect1_dropShadow_45_92" result="shape"/>
</filter>
</defs>
</svg>
